<?xml version="1.0" encoding="UTF-8" standalone="no"?><!DOCTYPE svg PUBLIC "-//W3C//DTD SVG 1.1//EN" "http://www.w3.org/Graphics/SVG/1.1/DTD/svg11.dtd"><svg width="100%" height="100%" viewBox="0 0 269 63" version="1.1" xmlns="http://www.w3.org/2000/svg" xmlns:xlink="http://www.w3.org/1999/xlink" xml:space="preserve" xmlns:serif="http://www.serif.com/" style="fill-rule:evenodd;clip-rule:evenodd;stroke-linejoin:round;stroke-miterlimit:2;"><g><g><g><path d="M30.18,0.237c5.657,5.657 13.33,8.836 21.331,8.836c0,8.001 3.178,15.674 8.836,21.331c-5.657,5.657 -8.836,13.33 -8.836,21.331c-8.001,0 -15.674,3.178 -21.331,8.836c-5.657,-5.657 -13.33,-8.836 -21.331,-8.836c0,-8.001 -3.178,-15.674 -8.836,-21.331c5.657,-5.657 8.836,-13.33 8.836,-21.331c8.001,0 15.674,-3.178 21.331,-8.836Zm-0,15.109c-3.332,3.825 -8.061,6.555 -13.04,7.529c1.646,4.799 1.646,10.259 0,15.057c4.979,0.973 9.708,3.704 13.04,7.529c3.332,-3.825 8.061,-6.555 13.04,-7.529c-1.646,-4.799 -1.646,-10.259 0,-15.057c-4.979,-0.973 -9.708,-3.704 -13.04,-7.529Z" style="fill:#000b1c;"/><g transform="matrix(58.759444,0,0,58.759444,70.522713,50.995807)"><path d="M0.309,0.014c-0.054,0 -0.102,-0.01 -0.143,-0.029c-0.041,-0.019 -0.074,-0.047 -0.097,-0.083c-0.023,-0.036 -0.035,-0.079 -0.035,-0.13l0,-0.028l0.13,0l0,0.028c0,0.042 0.013,0.074 0.039,0.095c0.026,0.021 0.061,0.031 0.106,0.032c0.045,-0 0.079,-0.009 0.102,-0.027c0.022,-0.018 0.033,-0.041 0.033,-0.069c0,-0.019 -0.005,-0.035 -0.017,-0.047c-0.011,-0.012 -0.027,-0.022 -0.048,-0.03c-0.021,-0.008 -0.046,-0.015 -0.077,-0.021l-0.023,-0.005c-0.048,-0.011 -0.089,-0.024 -0.124,-0.041c-0.034,-0.016 -0.061,-0.038 -0.079,-0.065c-0.018,-0.027 -0.027,-0.061 -0.027,-0.104c0,-0.043 0.01,-0.079 0.03,-0.11c0.02,-0.03 0.049,-0.054 0.086,-0.07c0.037,-0.016 0.08,-0.024 0.13,-0.024c0.05,0 0.095,0.009 0.134,0.025c0.039,0.017 0.07,0.042 0.092,0.076c0.022,0.034 0.034,0.076 0.034,0.127l0,0.03l-0.13,0l0,-0.03c0,-0.027 -0.005,-0.048 -0.015,-0.065c-0.01,-0.016 -0.025,-0.028 -0.045,-0.036c-0.019,-0.008 -0.042,-0.011 -0.069,-0.011c-0.04,0 -0.069,0.007 -0.088,0.022c-0.019,0.015 -0.028,0.035 -0.028,0.061c0,0.017 0.005,0.032 0.014,0.044c0.009,0.012 0.022,0.022 0.041,0.03c0.018,0.008 0.041,0.015 0.069,0.021l0.023,0.005c0.05,0.011 0.094,0.024 0.131,0.041c0.037,0.017 0.066,0.039 0.087,0.066c0.021,0.027 0.031,0.062 0.031,0.105c0,0.043 -0.011,0.08 -0.033,0.113c-0.022,0.032 -0.052,0.058 -0.092,0.076c-0.04,0.018 -0.087,0.027 -0.141,0.027Z" style="fill:#000b1c;fill-rule:nonzero;"/></g><g transform="matrix(58.759444,0,0,58.759444,103.192964,50.995807)"><path d="M0.07,-0l0,-0.496l0.124,0l0,0.065l0.018,0c0.008,-0.017 0.023,-0.034 0.045,-0.049c0.022,-0.016 0.055,-0.024 0.1,-0.024c0.039,0 0.073,0.009 0.102,0.026c0.029,0.018 0.051,0.042 0.068,0.073c0.016,0.031 0.024,0.067 0.024,0.109l0,0.296l-0.126,-0l0,-0.286c0,-0.037 -0.009,-0.065 -0.027,-0.084c-0.018,-0.019 -0.044,-0.028 -0.079,-0.028c-0.039,0 -0.069,0.013 -0.09,0.039c-0.021,0.026 -0.032,0.061 -0.032,0.107l0,0.252l-0.126,-0Z" style="fill:#000b1c;fill-rule:nonzero;"/></g><g transform="matrix(58.759444,0,0,58.759444,136.450809,50.995807)"><path d="M0.224,0.014c-0.035,0 -0.067,-0.006 -0.095,-0.019c-0.028,-0.012 -0.05,-0.03 -0.067,-0.054c-0.016,-0.024 -0.025,-0.052 -0.025,-0.086c0,-0.034 0.008,-0.063 0.025,-0.086c0.016,-0.023 0.039,-0.04 0.068,-0.052c0.029,-0.012 0.062,-0.017 0.1,-0.017l0.136,0l0,-0.028c-0,-0.023 -0.007,-0.042 -0.022,-0.057c-0.015,-0.015 -0.038,-0.023 -0.07,-0.023c-0.031,-0 -0.055,0.007 -0.07,0.022c-0.015,0.014 -0.025,0.033 -0.03,0.055l-0.116,-0.039c0.008,-0.025 0.021,-0.049 0.039,-0.07c0.018,-0.021 0.041,-0.038 0.071,-0.051c0.03,-0.013 0.066,-0.02 0.109,-0.02c0.065,0 0.117,0.016 0.155,0.049c0.038,0.033 0.057,0.08 0.057,0.142l0,0.185c0,0.02 0.009,0.03 0.028,0.03l0.04,0l0,0.104l-0.084,-0c-0.025,-0 -0.045,-0.006 -0.061,-0.018c-0.016,-0.012 -0.024,-0.028 -0.024,-0.048l0,-0.001l-0.019,0c-0.003,0.008 -0.009,0.018 -0.018,0.032c-0.009,0.013 -0.024,0.025 -0.044,0.035c-0.02,0.01 -0.047,0.015 -0.082,0.015Zm0.022,-0.102c0.035,-0 0.064,-0.01 0.087,-0.03c0.022,-0.02 0.033,-0.046 0.033,-0.079l0,-0.01l-0.127,0c-0.023,-0 -0.042,0.005 -0.055,0.015c-0.013,0.01 -0.02,0.024 -0.02,0.042c0,0.018 0.007,0.033 0.021,0.044c0.014,0.011 0.034,0.017 0.061,0.017Z" style="fill:#000b1c;fill-rule:nonzero;"/></g><g transform="matrix(58.759444,0,0,58.759444,167.475795,50.995807)"><path d="M0.07,0.2l0,-0.696l0.124,-0l0,0.06l0.018,0c0.011,-0.019 0.029,-0.036 0.053,-0.051c0.024,-0.015 0.058,-0.023 0.103,-0.023c0.04,0 0.077,0.01 0.111,0.03c0.034,0.02 0.061,0.048 0.082,0.086c0.021,0.038 0.031,0.084 0.031,0.138l0,0.016c0,0.054 -0.01,0.1 -0.031,0.138c-0.021,0.038 -0.048,0.067 -0.082,0.087c-0.034,0.02 -0.071,0.029 -0.111,0.029c-0.03,0 -0.055,-0.003 -0.076,-0.01c-0.02,-0.007 -0.037,-0.016 -0.049,-0.027c-0.012,-0.011 -0.022,-0.022 -0.029,-0.034l-0.018,0l0,0.257l-0.126,0Zm0.26,-0.296c0.039,0 0.072,-0.012 0.097,-0.037c0.026,-0.025 0.039,-0.061 0.039,-0.109l0,-0.01c0,-0.048 -0.013,-0.084 -0.039,-0.109c-0.026,-0.025 -0.058,-0.038 -0.097,-0.038c-0.039,-0 -0.071,0.013 -0.097,0.038c-0.026,0.025 -0.039,0.061 -0.039,0.109l0,0.01c0,0.048 0.013,0.084 0.039,0.109c0.026,0.025 0.058,0.037 0.097,0.038Z" style="fill:#000b1c;fill-rule:nonzero;"/></g><g transform="matrix(58.759444,0,0,58.759444,202.026348,50.995807)"><path d="M0.3,0.014c-0.053,0 -0.1,-0.008 -0.141,-0.024c-0.041,-0.016 -0.073,-0.039 -0.096,-0.07c-0.023,-0.03 -0.035,-0.066 -0.035,-0.107l0,-0.012c0,-0.032 0.006,-0.058 0.017,-0.08c0.011,-0.021 0.026,-0.037 0.043,-0.049c0.017,-0.012 0.033,-0.02 0.049,-0.025l0,-0.018c-0.015,-0.005 -0.031,-0.014 -0.046,-0.026c-0.015,-0.012 -0.028,-0.028 -0.037,-0.048c-0.01,-0.02 -0.014,-0.044 -0.014,-0.072l0,-0.012c0,-0.037 0.011,-0.069 0.033,-0.097c0.022,-0.028 0.052,-0.049 0.091,-0.065c0.039,-0.016 0.085,-0.023 0.138,-0.023c0.053,0 0.099,0.008 0.138,0.023c0.039,0.016 0.07,0.037 0.091,0.065c0.022,0.028 0.033,0.06 0.033,0.097l0,0.012c0,0.028 -0.005,0.052 -0.015,0.072c-0.01,0.02 -0.022,0.036 -0.037,0.048c-0.015,0.012 -0.031,0.021 -0.047,0.026l0,0.018c0.016,0.005 0.032,0.013 0.049,0.025c0.017,0.012 0.031,0.028 0.042,0.049c0.011,0.021 0.017,0.048 0.017,0.08l0,0.012c0,0.041 -0.011,0.077 -0.035,0.107c-0.023,0.03 -0.055,0.054 -0.096,0.07c-0.041,0.016 -0.088,0.024 -0.142,0.024Zm0,-0.114c0.046,-0 0.082,-0.009 0.107,-0.026c0.025,-0.018 0.037,-0.041 0.037,-0.071l0,-0.008c0,-0.029 -0.012,-0.053 -0.036,-0.071c-0.024,-0.018 -0.06,-0.026 -0.108,-0.026c-0.047,0 -0.082,0.009 -0.107,0.026c-0.025,0.018 -0.037,0.041 -0.037,0.071l0,0.008c0,0.029 0.013,0.053 0.038,0.071c0.025,0.018 0.06,0.026 0.106,0.026Zm0,-0.316c0.043,-0 0.076,-0.008 0.099,-0.023c0.023,-0.015 0.035,-0.037 0.035,-0.065l0,-0.008c0,-0.028 -0.012,-0.05 -0.036,-0.065c-0.024,-0.015 -0.057,-0.023 -0.098,-0.023c-0.041,0 -0.074,0.008 -0.098,0.023c-0.024,0.015 -0.036,0.037 -0.036,0.065l0,0.008c0,0.028 0.012,0.05 0.035,0.065c0.023,0.015 0.056,0.023 0.099,0.023Z" style="fill:#000b1c;fill-rule:nonzero;"/></g><g transform="matrix(58.759444,0,0,58.759444,234.344043,50.995807)"><path d="M0.312,0.014c-0.053,0 -0.1,-0.01 -0.139,-0.03c-0.039,-0.02 -0.07,-0.048 -0.091,-0.083c-0.021,-0.035 -0.032,-0.076 -0.032,-0.122l0,-0.239c0,-0.057 0.011,-0.104 0.035,-0.142c0.023,-0.038 0.055,-0.066 0.095,-0.085c0.04,-0.019 0.087,-0.028 0.139,-0.028c0.052,0 0.097,0.009 0.136,0.026c0.038,0.017 0.068,0.042 0.089,0.075c0.021,0.033 0.032,0.072 0.032,0.117l-0.13,0c0,-0.028 -0.01,-0.052 -0.029,-0.073c-0.019,-0.021 -0.052,-0.031 -0.097,-0.031c-0.045,0 -0.079,0.012 -0.104,0.035c-0.024,0.023 -0.036,0.056 -0.037,0.097l0,0.072l0.018,0c0.011,-0.013 0.029,-0.026 0.052,-0.038c0.023,-0.012 0.057,-0.018 0.102,-0.018c0.041,0 0.078,0.009 0.112,0.026c0.034,0.017 0.062,0.042 0.084,0.075c0.021,0.033 0.032,0.073 0.032,0.12l0,0.012c0,0.046 -0.011,0.087 -0.033,0.121c-0.022,0.035 -0.053,0.062 -0.093,0.082c-0.04,0.02 -0.087,0.029 -0.14,0.029Zm0.002,-0.114c0.042,-0 0.075,-0.011 0.1,-0.033c0.024,-0.022 0.036,-0.051 0.036,-0.088l0,-0.008c0,-0.025 -0.006,-0.046 -0.017,-0.064c-0.011,-0.018 -0.027,-0.032 -0.047,-0.042c-0.02,-0.01 -0.044,-0.015 -0.073,-0.015c-0.027,0 -0.051,0.005 -0.072,0.015c-0.021,0.01 -0.036,0.024 -0.047,0.042c-0.011,0.018 -0.016,0.039 -0.017,0.064l0,0.008c0,0.037 0.012,0.066 0.037,0.088c0.024,0.022 0.058,0.033 0.1,0.033Z" style="fill:#000b1c;fill-rule:nonzero;"/></g><g transform="matrix(58.759444,0,0,58.759444,270.657379,50.995807)"></g></g></g></g></svg>