<?xml version="1.0" encoding="UTF-8" standalone="no"?><!DOCTYPE svg PUBLIC "-//W3C//DTD SVG 1.1//EN" "http://www.w3.org/Graphics/SVG/1.1/DTD/svg11.dtd"><svg width="100%" height="100%" viewBox="0 0 90 90" version="1.1" xmlns="http://www.w3.org/2000/svg" xmlns:xlink="http://www.w3.org/1999/xlink" xml:space="preserve" xmlns:serif="http://www.serif.com/" style="fill-rule:evenodd;clip-rule:evenodd;stroke-linejoin:round;stroke-miterlimit:2;"><path d="M45.055,0.16c8.417,8.417 19.832,13.145 31.735,13.145c0,11.903 4.728,23.318 13.145,31.735c-8.417,8.417 -13.145,19.832 -13.145,31.735c-11.903,0 -23.318,4.728 -31.735,13.145c-8.417,-8.417 -19.832,-13.145 -31.735,-13.145c0,-11.903 -4.728,-23.318 -13.145,-31.735c8.417,-8.417 13.145,-19.832 13.145,-31.735c11.903,0 23.318,-4.728 31.735,-13.145Zm-0,22.479c-4.958,5.691 -11.993,9.753 -19.4,11.201c2.449,7.139 2.449,15.262 0,22.401c7.407,1.448 14.442,5.51 19.4,11.201c4.958,-5.691 11.993,-9.753 19.4,-11.201c-2.449,-7.139 -2.449,-15.262 0,-22.401c-7.407,-1.448 -14.442,-5.51 -19.4,-11.201Z" style="fill:#000b1c;"/></svg>